<svg preserveAspectRatio="none" width="100%" height="100%" overflow="visible" style="display: block;" viewBox="0 0 36.0005 42.75" fill="none" xmlns="http://www.w3.org/2000/svg">
<g id="EB" clip-path="url(#clip0_0_322)">
<path id="Vector" d="M19.4469 13.4529C21.5385 12.7983 23.0523 10.8478 23.0523 8.55445C23.0523 5.71781 20.7368 3.41555 17.8838 3.41555C16.1818 3.41555 14.6815 4.23492 13.732 5.49516C13.8081 7.96664 14.6725 12.1348 19.4424 13.4529H19.4469ZM16.3296 4.95187C16.4013 4.92961 16.4774 4.9118 16.5536 4.88953C17.5882 4.64016 18.6138 4.82719 19.4693 5.30813C20.3785 5.82023 21.0772 6.66633 21.3504 7.73508C21.422 8.02898 21.4579 8.31398 21.4668 8.59898C21.4668 9.08437 20.8443 9.13781 20.5711 8.72813C20.1187 8.0557 19.5544 7.4768 18.9139 7.00477C18.1839 6.46594 17.3598 6.05625 16.473 5.81578C15.9893 5.68664 15.8594 5.08992 16.3341 4.95187H16.3252H16.3296Z" fill="var(--fill-0, #4992FE)"/>
<path id="Vector_2" d="M16.4685 5.81578C17.3553 6.05625 18.1794 6.46594 18.9094 7.00477C19.5454 7.4857 20.1142 8.06461 20.5666 8.72812C20.8398 9.12891 21.4668 9.07547 21.4623 8.59453C21.4623 8.30953 21.422 8.01562 21.3459 7.73062C21.0727 6.66633 20.374 5.81578 19.4648 5.30367C18.6093 4.82273 17.5837 4.64461 16.5491 4.88508C16.473 4.89844 16.4013 4.92516 16.3252 4.94742C15.8504 5.08547 15.9893 5.68219 16.464 5.81133H16.473L16.4685 5.81578Z" fill="var(--fill-0, white)"/>
<path id="Vector_3" d="M13.732 5.4907C13.096 6.35016 12.7063 7.40109 12.7063 8.55C12.7063 11.3866 15.0218 13.6889 17.8748 13.6889C18.4168 13.6889 18.9453 13.6043 19.4469 13.4484C14.677 12.1259 13.8036 7.96219 13.7364 5.4907H13.732Z" fill="var(--fill-0, #066AFE)"/>
<path id="Vector_4" d="M9.4995 14.5038C9.82645 14.5038 10.1624 14.4103 10.449 14.2099C11.2194 13.6845 11.4209 12.6424 10.8924 11.8765C10.2071 10.879 9.84437 9.70336 9.84437 8.49211C9.84437 7.28086 10.1848 6.18094 10.8297 5.21016C11.3448 4.43531 11.1253 3.39328 10.346 2.88562C9.56668 2.37352 8.51865 2.59172 8.00807 3.36656C7.00482 4.88953 6.46736 6.65742 6.46736 8.48766C6.46736 10.3179 7.03617 12.206 8.1066 13.7646C8.43355 14.2455 8.96205 14.4994 9.50398 14.4994L9.49502 14.5083L9.4995 14.5038Z" fill="var(--fill-0, #7CB1FE)"/>
<path id="Vector_5" d="M3.85623 17.1043C4.18318 17.1043 4.51909 17.0108 4.81021 16.8104C5.58057 16.2849 5.77315 15.2429 5.25361 14.477C4.02643 12.7002 3.38148 10.6117 3.38148 8.44745C3.38148 6.28323 3.98612 4.3283 5.13717 2.59604C5.65223 1.8212 5.43277 0.779164 4.65346 0.271508C3.86967 -0.231695 2.82163 -0.0179451 2.30657 0.756899C0.801703 3.04135 0 5.69987 0 8.4519C0 11.2039 0.855448 14.0406 2.46333 16.3785C2.79028 16.8505 3.31878 17.1132 3.86071 17.1132L3.85175 17.1043H3.85623Z" fill="var(--fill-0, #A8CBFF)"/>
<path id="Vector_6" d="M25.538 14.2099C25.8247 14.4103 26.1606 14.5038 26.4875 14.5038C27.025 14.5038 27.5535 14.25 27.8849 13.7691C28.9553 12.206 29.5241 10.3847 29.5241 8.49211C29.5241 6.59953 28.9957 4.88953 27.9834 3.37102C27.4684 2.59617 26.4293 2.38242 25.6455 2.89008C24.8662 3.40219 24.6512 4.43531 25.1618 5.21461C25.8068 6.18984 26.1471 7.32539 26.1471 8.49656C26.1471 9.66773 25.7799 10.8834 25.0991 11.8809C24.5706 12.6469 24.7722 13.6889 25.5425 14.2144L25.5336 14.2055L25.538 14.2099Z" fill="var(--fill-0, #7CB1FE)"/>
<path id="Vector_7" d="M33.6849 0.757031C33.1699 -0.0178125 32.1308 -0.231562 31.347 0.276094C30.5677 0.788203 30.3527 1.83023 30.8633 2.60063C32.0144 4.33734 32.619 6.36352 32.619 8.45203C32.619 10.5405 31.974 12.7003 30.7469 14.4816C30.2184 15.2475 30.4199 16.2895 31.1903 16.815C31.4769 17.0154 31.8128 17.1089 32.1398 17.1089C32.6772 17.1089 33.2057 16.8551 33.5371 16.3741C35.145 14.0318 36.0005 11.2887 36.0005 8.44758C36.0005 5.60648 35.1988 3.03703 33.6939 0.752578L33.6849 0.761484V0.757031Z" fill="var(--fill-0, #A8CBFF)"/>
<path id="Vector_8" d="M29.9765 42.7322C31.2574 42.6787 32.2383 41.7258 32.301 40.4433C32.0771 33.6033 29.3629 24.9286 24.8707 16.628L24.8259 16.5656C24.0421 15.7151 22.8508 16.0402 21.9908 16.2717L21.8968 16.294C20.6472 16.6502 19.3394 16.8284 18.0092 16.8328C16.679 16.8328 15.3757 16.6458 14.1216 16.294L14.0276 16.2717C13.1631 16.0402 11.9763 15.7151 11.1925 16.5656L11.1477 16.628C10.9775 16.9441 10.8073 17.2692 10.6416 17.5943V17.6032C10.7133 19.233 10.8969 21.4106 11.3179 23.8331C11.8777 22.5195 12.4689 21.237 13.0736 20.0257L15.1472 21.4863L11.3627 24.1538C11.8061 26.5718 12.4958 29.208 13.5528 31.733L15.1249 32.8284L14.3232 33.394C14.8203 34.3826 15.3801 35.3355 16.0161 36.2395C16.7148 35.8076 17.3822 35.5849 17.9823 35.5537C18.8154 35.5938 19.729 35.9946 20.7099 36.7516L25.9008 40.3988C26.2681 40.6526 26.6174 40.9331 26.9488 41.2003C27.9342 41.9796 28.8702 42.7233 29.7929 42.7233C29.8466 42.7233 29.9093 42.7233 29.9631 42.7144L29.972 42.7366L29.9765 42.7322ZM28.812 38.0787C28.812 38.3013 28.7672 38.3948 28.7717 38.4037C28.7717 38.4037 28.6687 38.4038 28.4358 38.2345L28.2477 38.4839L28.4045 38.2123L28.2432 38.0876C28.1044 37.9807 27.9655 37.8694 27.8222 37.7714C26.1203 36.5023 24.481 35.3756 23.2449 34.5429L20.8353 32.8418L26.604 28.7939C27.7371 32.1649 28.4761 35.2999 28.812 38.0831V38.0787ZM24.9244 24.3541L20.8577 21.4863L22.9314 20.0257C23.6211 21.4017 24.2929 22.8534 24.92 24.3541H24.9244ZM17.9913 30.829L12.7825 27.1507L18.0047 23.4813L23.2135 27.1373L17.9913 30.8245V30.8334V30.829Z" fill="var(--fill-0, #4992FE)"/>
<path id="Vector_9" d="M11.0895 24.3541L11.3672 24.1627V24.1538L11.0895 24.3452V24.3541Z" fill="var(--fill-0, #0098FF)"/>
<path id="Vector_10" d="M6.01501 42.7322C6.14041 42.7455 6.26582 42.7455 6.38675 42.7322C6.26134 42.7455 6.14489 42.7455 6.01949 42.7322C4.76095 42.6877 3.78009 41.7347 3.71739 40.4745C3.93685 33.8749 6.45393 25.6055 10.6326 17.6077V17.5988C6.44497 25.5966 3.92342 33.8794 3.70843 40.47C3.77114 41.7302 4.75199 42.6787 6.01053 42.7277L6.01501 42.7322Z" fill="var(--fill-0, #0098FF)"/>
<path id="Vector_11" d="M9.40545 28.8206L13.5707 31.7419L13.5618 31.733L9.40545 28.8117V28.8206Z" fill="var(--fill-0, #0098FF)"/>
<path id="Vector_12" d="M8.81425 37.3127L8.15587 37.7981C7.96776 37.9317 7.77517 38.0742 7.58258 38.2212C7.38999 38.3592 7.29594 38.3815 7.27802 38.3993C7.27802 38.3904 7.38104 38.377 7.58706 38.2212C7.77965 38.0653 7.97671 37.9273 8.16034 37.7981L8.81873 37.3127C9.87572 36.5379 10.9103 35.8076 12.0345 35.0416L14.3366 33.4207L12.03 35.0416C10.9103 35.8076 9.87124 36.5423 8.81425 37.3127Z" fill="var(--fill-0, #0098FF)"/>
<path id="Vector_13" d="M9.40545 28.8206C8.28575 32.1516 7.54675 35.2554 7.20636 38.0609C7.20636 38.2613 7.24667 38.3681 7.26907 38.3948C7.24667 38.3637 7.20636 38.2613 7.20636 38.0609C7.54227 35.2554 8.27679 32.1516 9.39649 28.8206H9.40545Z" fill="var(--fill-0, #0B5CAB)"/>
<path id="Vector_14" d="M14.0455 37.6155L10.9461 39.7931C10.6685 39.9935 10.3863 40.1939 10.1086 40.4121C9.74136 40.6748 9.39201 40.9509 9.05162 41.2226C8.13347 41.9484 7.26459 42.6431 6.3957 42.7366C7.26459 42.652 8.14243 41.9484 9.06058 41.2226C9.40097 40.9509 9.75031 40.6748 10.1176 40.4121C10.3953 40.2028 10.6774 40.0024 10.9551 39.7931L14.0544 37.6155C14.4575 37.3395 14.8606 37.0678 15.2995 36.7739C15.5503 36.5824 15.7877 36.4088 16.0296 36.2618C15.7877 36.4088 15.5459 36.578 15.2906 36.7739C14.8561 37.0678 14.4441 37.3439 14.0455 37.6155Z" fill="var(--fill-0, #0B5CAB)"/>
<path id="Vector_15" d="M12.03 35.0416C10.9103 35.8076 9.87124 36.5423 8.81425 37.3127L8.15587 37.7981C7.96776 37.9317 7.77517 38.0742 7.58258 38.2212C7.37208 38.377 7.27802 38.3904 7.27355 38.3993C7.25115 38.3681 7.21084 38.2702 7.21084 38.0653C7.54675 35.2598 8.28127 32.1471 9.40993 28.8162L13.5662 31.7374C12.5003 29.2125 11.8106 26.5852 11.3761 24.1582L11.0984 24.3497H11.0895C11.1656 24.1805 11.2462 24.0112 11.3134 23.8376C10.8924 21.4195 10.7088 19.242 10.6371 17.6077C6.45393 25.6055 3.93685 33.8794 3.72187 40.4745C3.78457 41.7347 4.76543 42.6832 6.02396 42.7322C6.14937 42.7455 6.26582 42.7455 6.39123 42.7322C7.26011 42.6387 8.13347 41.944 9.04714 41.2181C9.38753 40.9465 9.73688 40.6704 10.1041 40.4077C10.3818 40.1984 10.664 39.998 10.9417 39.7887L14.041 37.6111C14.4441 37.335 14.8472 37.0634 15.2861 36.7695C15.5369 36.578 15.7832 36.4043 16.0251 36.2573C15.3891 35.3534 14.8293 34.4048 14.3321 33.4118L12.03 35.0327H12.039L12.03 35.0416Z" fill="var(--fill-0, #066AFE)"/>
</g>
<defs>
<clipPath id="clip0_0_322">
<rect width="36.0005" height="42.75" fill="white"/>
</clipPath>
</defs>
</svg>
